
<svg xmlns="http://www.w3.org/2000/svg" width="17" height="17" version="1.0" viewBox="0 0 1280 1139">
    <path d="M817.5 1c-1.1.5-3.8.9-6.1.9-3.3.1-68.1 21.4-82.7 27.3-5.9 2.3-7.4 10.4-3.8 19.6 1.2 2.9 3 7.5 4.1 10.3 2.4 6 2 9.7-1.6 13.7-1.4 1.5-3.8 4.6-5.4 6.9-1.6 2.3-4.2 5-5.6 6-3.7 2.4-11.2 2.1-20.9-1-7.7-2.5-9.2-2.6-40-3-31.6-.4-45-1.5-65.1-5.3-7.2-1.3-10.3-1.3-29 .1-41.5 3-54.4 5.2-76.4 13-5.2 1.8-18.7 6.3-30 9.9-24.4 7.9-35.5 13.2-51.5 24.7-6.6 4.7-19.9 13.6-29.5 19.8-31.9 20.6-45.6 31.3-59.6 46.7-4.9 5.4-15.2 16.3-22.9 24.3-18.8 19.5-24.7 28.6-28 42.6-.7 3.4-3.8 12.9-6.9 21.1-8.4 23.1-10.2 35.5-6.5 45.1.5 1.3 1.6 5.6 2.4 9.5 2.5 12.1 6.5 19.4 21.7 40 8.4 11.3 6.7 9.9 37.1 31 20.7 14.2 26.8 20.9 39.2 42.3 7.3 12.7 17.6 27.1 28.2 39.8 4.6 5.5 8.3 10.4 8.3 10.8 0 1.7-59.2 151.5-60.3 152.6-.9.9-3.6.5-11.6-1.7-23.6-6.7-41.2-9.1-67.1-9.2-40.5 0-74.8 7.9-110.1 25.7-70.3 35.4-120.2 103.1-133.3 181C.1 872.3-.6 891.9 2.3 915c7.2 58 30 107.1 68.2 146.8 36.1 37.6 80.5 62 130.3 71.6 35.3 6.8 58.1 6.8 93.4 0 56.1-10.8 108.8-42.6 143.8-86.9 4.7-5.9 9.6-12 11-13.6l2.5-2.9 7 4.6c9.8 6.4 16.7 9.8 26 12.7l8 2.4 38-.6 38-.6 2.4-4.4c2.9-5.3 3.2-13.1.6-18.1-1-1.9-4.7-6.2-8.3-9.5-15.2-14-23.4-22.4-23-23.6.3-.9 3.8-1.3 12.4-1.4 20-.3 33-5.9 47.1-20 6.7-6.8 8.9-9.9 12.6-17.6 2.5-5.2 5.2-12.6 6.1-16.6 2.1-9.2 2-23.4 0-32.6-1.7-7.5-6.8-19.6-10.3-24.6-1.2-1.6-2.1-3.4-2.1-3.9 0-.6 36.6-35.8 81.3-78.4 44.6-42.6 108-103 140.7-134.1 32.7-31.2 59.8-56.7 60.2-56.7 1 0 11.9 34.2 11.4 35.6-.2.6-5.1 3.7-10.9 6.8-47.6 25.5-85.6 64-109.7 111.1-11.2 21.9-19.1 45.7-23.7 71.5-2.4 13-2.6 17.1-2.7 40.5-.1 29.2.9 38.4 7 62.5 23.9 95.2 103.9 169.9 202.4 189.1 35.2 6.8 74 6.6 109.8-.6 37.5-7.6 80.9-28 110.7-52 51.7-41.5 85.2-99.5 93.9-162.6 3.2-23.4 3.9-31.1 3.3-40-4.2-70-28.8-126.6-75.1-173.1-40.5-40.6-90.9-65.8-150.1-75-18.8-2.9-57.9-3.2-75.5-.5-14.4 2.2-32.2 6.2-42 9.3-10.2 3.2-11.6 3.1-12.9-.9-.5-1.7-5.7-18.2-11.5-36.5-5.9-18.3-10.6-34.1-10.6-35.1 0-1.7 1.2-2 11.8-2.5 18.2-1 24.9-2.5 43.5-9.8l7.7-3.1 6.5 1.8c7.5 2 9.3 3.5 6.7 5.7-1.1 1-5 1.8-11.7 2.2-12.9.9-17.9 2.2-21.5 5.6-3.6 3.4-4.1 8.9-1.1 11.9 2.9 2.9 7.2 3.4 24.8 2.9 13.4-.4 17.8-.9 29.3-3.7 7.4-1.8 16.2-4.4 19.5-5.8 7.9-3.3 11.1-4 22.7-5.2 7.6-.7 10.9-1.6 15-3.8 6.4-3.5 9.6-7.8 16.3-21.8 2.8-6.1 6.4-12.5 7.9-14.2l2.8-3.3-2.4-4.6c-3.2-6.5-9.7-11.7-20.8-16.5-15.2-6.7-18.7-8.7-24.7-14-8.2-7.5-11.4-8.7-32-11.5-2.1-.3-3.4-1.2-3.8-2.5-.4-1.2-4.6-7.3-9.4-13.7-4.8-6.5-11.3-15.6-14.4-20.3-4-6.1-6.7-9.1-9.1-10.3-6.3-3-34.1-1.9-77.6 2.9-12.4 1.4-23.9 2.8-25.6 3.1-2.6.5-4.2-.4-12.2-6.6-8.5-6.8-9.8-8.2-18.9-22.4-16.1-25.1-21.4-36.3-24.7-53.1-.8-3.9-2.3-10.5-3.5-14.8-1.5-5.7-2.5-14.8-3.6-33-.9-13.9-1.9-26.8-2.4-28.7-.5-1.9-2.6-7.3-4.7-12-4.8-10.9-5.2-18-1.3-25.5 1.4-2.8 3.3-5.1 4.3-5.3 1-.2 5.5 2.1 10.1 5.2 10.4 7 14.1 8.6 20.1 8.6 6.1 0 10.4-4.1 12.8-12.3 2.2-7.6 6-11.7 15.9-16.7 4.5-2.4 9.3-5.1 10.7-6 1.7-1.2 5.6-1.9 12-2.4 11.9-.8 16-1.9 19.1-5.2 2.9-3.1 3.2-9.8.6-16.2-3.2-8.1-2.4-12.3 4.9-24.2 2.2-3.5 3.8-8 4.6-12.4 1.8-9.9 3.3-10.8 19.2-11.7 7.1-.4 13.7-1.3 15.3-2.1 2.5-1.2 2.8-1.8 2.5-5.6-1-15.5-18.9-52.1-34.8-71-14.7-17.6-26-27.5-37-32.3-2.7-1.2-7.6-3.9-11.1-6-18.4-11.3-36-17-42.8-13.9zM647.3 267.3c2 1.4 26.2 67.5 25.2 68.5-.3.4-2.7-.6-5.3-2.1-13.9-8.3-30.1-15-59.7-24.6-29.4-9.6-46.1-16.4-45.7-18.6.1-.6 7.1-1.3 16.9-1.7 26.8-1 35-3.3 49.4-13.6 8-5.8 14-9.1 16.5-9.2.5 0 1.8.6 2.7 1.3zM502.5 418c10.6 2.6 26.2 3.9 54 4.5 16.5.3 34.9 1.1 40.8 1.6 11.4 1.1 25.2 4 26.8 5.6.7.7-4.6 8.1-15.3 21.4-19.4 24.2-26.4 34-34.6 48-9.2 15.7-7.6 14.4-17.8 14.4h-8.8l-5.9-11.5c-9.9-19.3-23-43.5-34.6-63.9-6.1-10.7-11.1-19.8-11.1-20.3 0-1 1.6-1 6.5.2zm233.6 20.6c5.5 4.2 34.6 18.1 77 36.8 34.4 15.2 39.5 17.7 40.3 20 .6 1.6.6 3 0 3.6-.7.7-160.9 9-173.8 9-.9 0-1.6-.7-1.6-1.5 0-1.6 11.5-14.7 28.2-32l9.7-10.1 3.2-11c1.7-6 3.5-11.7 4-12.6 2.9-5.4 7.6-6.2 13-2.2zm193.9 11c20.1 2.5 26.9 4.2 34.7 8.7 4 2.3 7.3 4.6 7.3 5.2 0 2-16.5 18.4-19.2 19.1-2.2.5-6-1.1-19.2-7.9-14.6-7.6-33.2-18.5-40.9-23.9-1.5-1.1-2.4-2.4-2.1-3 .8-1.3 22.9-.3 39.4 1.8zm-528.6 61.3c3.6 3.7 4.8 6.9 24.1 66.5l20.4 62.6-1.1 5.8c-.6 3.1-4.3 18.7-8.3 34.7-4 15.9-7.6 30.2-7.9 31.7-.4 1.6-1.1 2.8-1.7 2.8-.6 0-4.8-3.4-9.3-7.7-18.4-17.3-37.9-31.2-58.9-41.9-7-3.6-13-7.1-13.3-7.8-.3-.7 10.8-34.7 24.6-75.6 13.7-40.9 25-74.5 25-74.7 0-1.4 3.3.4 6.4 3.6zm499.5 5.3c14.2 7.5 23.3 13.6 22.8 15.1-.6 1.8-26.9 5.8-28.4 4.3-1.5-1.4-8.4-23.7-7.7-24.8.8-1.3 1-1.2 13.3 5.4zm-39.2 6c1.2 1.6 18.3 55.8 18.3 58 0 .9-56.1 55.1-124.7 120.5-68.6 65.3-134.3 127.9-146 139.1L588 860.1l-5-2.6c-2.7-1.4-5-2.8-5-3.1 0-1.1 18-66.8 18.8-68.8.8-1.8 2.1-2 18.3-2.1 16.7-.2 44.7-2.7 49.3-4.5 3.7-1.4 5.6-3.9 5.6-7.5 0-7.4-14.8-18.2-51.4-37.2-23.5-12.2-34-18.9-43-27.7-8.9-8.5-12.8-16.8-13.4-28.1-.4-7.3-.1-9.2 3.2-19 4-11.8 10.8-25.4 18.9-37.5 10.2-15.2 38.6-52.1 56-72.8l17.9-21.2 5.6-.1c3.2 0 44-1.5 90.7-3.3 100.1-3.9 105.9-4 107.2-2.4zM358 600.5c-15.2 45.7-18.4 54.5-20 54.5-3.1 0-5-1.1-5-3 0-1.8 34.4-90.3 39.8-102.4 6.2-14 2.2-.2-14.8 50.9zm102.4-16c7.3 9.4 8.6 11.6 8.6 14.8 0 5.1-3.8 13.9-5.8 13.5-1-.2-3.5-6.2-7.3-17.5-7-21-7.7-23.8-5.6-22.7.8.5 5.4 5.8 10.1 11.9zm592.6 52c94.9 14.9 171.4 79.1 199.4 167.5 13.1 41.2 14 87.9 2.6 130.5-10.3 38.6-30.4 73.6-59.5 103.4-39.4 40.4-87.4 64.7-145 73.2-10.8 1.6-18.8 2.1-35 2-31.4 0-51.9-3.3-80.5-12.7-90.2-30-154.1-106.6-165.6-198.4-2.9-23.5-1.4-55.5 3.7-78.4 13.3-59.9 50.6-113.7 102.7-147.9 11.5-7.6 26.2-15.7 28.5-15.7 1.2 0 2.6 2.9 5.2 11.2 1.9 6.2 13.7 43.6 26.3 83.1l22.8 71.8 13.6 16.1 13.7 16.1-1.6 3.6c-2.8 6.6-3.5 10.6-3 16.8.9 11.5 7.7 21.1 18.6 26.1 8 3.8 19.2 3.8 27.3 0 6.6-3.1 12.8-9.1 16-15.6 3.2-6.6 3.2-18.6 0-25.7-4.9-10.7-16.5-18.5-27.4-18.5h-5.7l-6.2-7.2c-3.4-3.9-7-9-8-11.2-8-18.2-51.1-132.8-57.3-152.2-4.2-13.3-7.6-24.7-7.6-25.2 0-3.2 37.8-12 62.5-14.6 9.4-1 49.4.3 59.5 1.9zm-773.5 20c18.9 2.8 40.5 8.6 40.5 10.8 0 .7-16.6 43.3-36.8 94.7l-36.8 93.5-4.3.7c-26.1 4.5-36.7 35.2-18.4 53.5 6.7 6.7 12.3 8.8 23.3 8.8 8.4 0 10.1-.3 14.6-2.7 6.3-3.3 14-11.7 15.6-17 .6-2.2 1.7-4.2 2.4-4.5 1.2-.5 109.5 11.4 112.7 12.3.9.3 1.7.9 1.7 1.4 0 .7-7.7 11.8-13.5 19.5-3.6 4.6-7.3 13.4-8 19-.4 2.7-2.2 11-4.1 18.3-4.7 18.5-4.4 24.2 1.9 30.9 5.3 5.7 11.2 7.4 28.6 8.4 8.6.5 17.9 1.4 20.8 2 5.8 1.1 11.7 4.8 15.8 9.7 3.4 4.1 3.4 4.1-8.4 19-43.7 55.2-109.6 87.2-179.6 87.2-87.3 0-166.1-49.2-205.8-128.5-15.6-31.2-23.3-61.9-24.4-97-1-30.5 2.5-54.7 11.7-82.8 25.1-76.1 87.8-134.2 165.1-153.1 10-2.4 27-5.1 37.4-6 9.3-.7 37.9.4 48 1.9zm52.4 14.2 2.1 1.8-31.8 94.7c-17.5 52.1-32.1 95-32.5 95.4-.4.4-3.5-.7-6.9-2.3-3.5-1.7-7.1-3.4-8.2-3.7-1.3-.4-1.7-1.3-1.4-2.9.6-2.4 70.2-179.8 71.9-182.8 1.2-2.4 4-2.4 6.8-.2zm23.7 10.8c11.7 6.4 24.5 15 35.9 24.2 10.6 8.6 31.5 29.5 31.5 31.6 0 .6-.9 6.1-1.9 12.2-2.7 15.3-4.9 32.7-6 48-4.4 57-5.7 67.8-9.8 81-2.9 9.3-6.9 17.5-8.4 17.5s-107.6-11.9-112.8-12.6c-3.8-.6-4.5-1.1-5.8-4.3-.8-2-2.1-5-3-6.7-1.6-3.2-1.5-3.5 30.7-99.5 17.7-53 32.7-96.9 33.2-97.6 1.2-1.5 4.5-.2 16.4 6.2zm161.4 80c2.3.8 10.7 2.6 18.5 3.9 8.5 1.4 16.9 3.5 20.7 5.1 3.4 1.5 10.1 4.3 14.8 6.2 4.7 2 8.8 3.8 9.2 4.2.8.7-16.3 65.3-17.9 67.9-.6.9-4.2 1.4-12 1.7l-11.2.4-11.6-35.7c-6.4-19.6-12.9-39.8-14.6-44.7-1.6-5-2.9-9.3-2.9-9.8 0-1.1 2.3-.8 7 .8zm-11.4 62c6.3 19.3 11.4 35.5 11.4 36.1 0 .5-2.6 3.2-5.7 5.8-3.2 2.6-7.8 7.4-10.3 10.6-2.5 3.2-5 5.9-5.6 5.9-.7.1-1.5-5.3-2.3-14.2-1.5-17.5-4-31.4-8.4-47.5l-3.4-12.3 3.5-5.7c1.9-3.1 4.3-7.6 5.3-10 1.1-2.4 2.4-4.2 3-4 .6.2 6.3 16.1 12.5 35.3zm-29.1 37.3c1.7 13.9 1.9 33.8.5 34.7-1.4.8-5.7-8.8-7-15.4-.7-3.8-.6-8.8.5-18.4.9-7.3 1.8-13.9 2.1-14.7 1.1-3 2.5 2 3.9 13.8z"/>
</svg>