
<svg xmlns="http://www.w3.org/2000/svg" xml:space="preserve" width="14" height="14" viewBox="0 0 293.372 293.372">
    <path d="M146.689 293.372C65.805 293.372.003 227.565.003 146.686S65.805 0 146.689 0 293.37 65.807 293.37 146.686s-65.797 146.686-146.681 146.686zm0-271.909c-69.043 0-125.218 56.18-125.218 125.224 0 69.038 56.175 125.213 125.218 125.213s125.218-56.169 125.218-125.207c0-69.05-56.169-125.23-125.218-125.23z" style="fill:#010002"/><path d="M146.689 249.827c-45.802 0-85.48-29.442-98.735-73.232-1.719-5.673 1.49-11.667 7.163-13.375 5.689-1.74 11.667 1.474 13.38 7.158 10.329 34.141 42.485 57.975 78.187 57.975 35.963 0 68.184-24.062 78.344-58.524 1.675-5.678 7.631-8.969 13.331-7.25 5.684 1.681 8.936 7.636 7.261 13.315-12.831 43.54-53.515 73.933-98.931 73.933z" style="fill:#010002"/>
    <circle cx="113.521" cy="132.517" r="14.163" style="fill:#010002"/>
    <circle cx="179.856" cy="132.517" r="14.163" style="fill:#010002"/>
</svg>